<svg xmlns="http://www.w3.org/2000/svg" version="1.1" x="0" y="0" viewBox="0 0 600 600" xml:space="preserve"><style type="text/css">
	.st0{fill:#70CFF0;}
	.st1{fill:#E5E7E8;}
	.st2{fill:#FFFFFF;}
	.st3{fill:#EE3424;}
	.st4{fill:#F05427;}
</style><path class="st0" d="M545.3 300.1c0-32.5-40.7-63.3-103.1-82.4 14.4-63.6 8-114.2-20.2-130.4 -6.5-3.8-14.1-5.6-22.4-5.6V104c4.6 0 8.3 0.9 11.4 2.6 13.6 7.8 19.5 37.5 14.9 75.7 -1.1 9.4-2.9 19.3-5.1 29.4 -19.6-4.8-41-8.5-63.5-10.9 -13.5-18.5-27.5-35.3-41.6-50 32.6-30.3 63.2-46.9 84-46.9V81.6c-27.5 0-63.5 19.6-99.9 53.6C263.4 101.4 227.4 82 199.9 82v22.3c20.7 0 51.4 16.5 84 46.6 -14 14.7-28 31.4-41.3 49.9 -22.6 2.4-44 6.1-63.6 11 -2.3-10-4-19.7-5.2-29 -4.7-38.2 1.1-67.9 14.6-75.8 3-1.8 6.9-2.6 11.5-2.6V82.1c-8.4 0-16 1.8-22.6 5.6 -28.1 16.2-34.4 66.7-19.9 130.1C95.2 237 54.7 267.7 54.7 300.1c0 32.5 40.7 63.3 103.1 82.4 -14.4 63.6-8 114.2 20.2 130.4 6.5 3.8 14.1 5.6 22.5 5.6 27.5 0 63.5-19.6 99.9-53.6 36.4 33.8 72.4 53.2 99.9 53.2 8.4 0 16-1.8 22.6-5.6 28.1-16.2 34.4-66.7 19.9-130.1C504.8 363.2 545.3 332.4 545.3 300.1L545.3 300.1zM415.1 233.4c-3.7 12.9-8.3 26.2-13.5 39.5 -4.1-8-8.4-16-13.1-24 -4.6-8-9.5-15.8-14.4-23.4C388.3 227.6 402 230.2 415.1 233.4L415.1 233.4zM369.3 339.9c-7.8 13.5-15.8 26.3-24.1 38.2 -14.9 1.3-30 2-45.2 2 -15.1 0-30.2-0.7-45-1.9 -8.3-11.9-16.4-24.6-24.2-38 -7.6-13.1-14.5-26.4-20.8-39.8 6.2-13.4 13.2-26.8 20.7-39.9 7.8-13.5 15.8-26.3 24.1-38.2 14.9-1.3 30-2 45.2-2 15.1 0 30.2 0.7 45 1.9 8.3 11.9 16.4 24.6 24.2 38 7.6 13.1 14.5 26.4 20.8 39.8C383.7 313.4 376.8 326.8 369.3 339.9L369.3 339.9zM401.6 326.9c5.4 13.4 10 26.8 13.8 39.8 -13.1 3.2-26.9 5.9-41.2 8 4.9-7.7 9.8-15.6 14.4-23.7C393.2 342.9 397.5 334.8 401.6 326.9L401.6 326.9zM300.2 433.6c-9.3-9.6-18.6-20.3-27.8-32 9 0.4 18.2 0.7 27.5 0.7 9.4 0 18.7-0.2 27.8-0.7C318.7 413.3 309.4 424 300.2 433.6zM225.8 374.7c-14.2-2.1-27.9-4.7-41-7.9 3.7-12.9 8.3-26.2 13.5-39.5 4.1 8 8.4 16 13.1 24S220.9 367.1 225.8 374.7zM299.7 166.6c9.3 9.6 18.6 20.3 27.8 32 -9-0.4-18.2-0.7-27.5-0.7 -9.4 0-18.7 0.2-27.8 0.7C281.2 186.9 290.5 176.2 299.7 166.6zM225.7 225.5c-4.9 7.7-9.8 15.6-14.4 23.7 -4.6 8-8.9 16-13 24 -5.4-13.4-10-26.8-13.8-39.8C197.6 230.2 211.4 227.5 225.7 225.5L225.7 225.5zM135.2 350.6c-35.4-15.1-58.3-34.9-58.3-50.6s22.9-35.6 58.3-50.6c8.6-3.7 18-7 27.7-10.1 5.7 19.6 13.2 40 22.5 60.9 -9.2 20.8-16.6 41.1-22.2 60.6C153.3 357.7 143.9 354.3 135.2 350.6L135.2 350.6zM189 493.6c-13.6-7.8-19.5-37.5-14.9-75.7 1.1-9.4 2.9-19.3 5.1-29.4 19.6 4.8 41 8.5 63.5 10.9 13.5 18.5 27.5 35.3 41.6 50 -32.6 30.3-63.2 46.9-84 46.9C195.8 496.1 192 495.3 189 493.6L189 493.6zM426.2 417.4c4.7 38.2-1.1 67.9-14.6 75.8 -3 1.8-6.9 2.6-11.5 2.6 -20.7 0-51.4-16.5-84-46.6 14-14.7 28-31.4 41.3-49.9 22.6-2.4 44-6.1 63.6-11C423.3 398.4 425.1 408 426.2 417.4zM464.7 350.6c-8.6 3.7-18 7-27.7 10.1 -5.7-19.6-13.2-40-22.5-60.9 9.2-20.8 16.6-41.1 22.2-60.6 9.9 3.1 19.3 6.5 28.1 10.2 35.4 15.1 58.3 34.9 58.3 50.6C523 315.8 500.1 335.6 464.7 350.6L464.7 350.6z"/><circle class="st0" cx="299.9" cy="300.1" r="45.7"/><path class="st0" d="M399.5 81.7"/><path class="st1" d="M299.4 300l98.7 14.8 98-14.8 -16.2 207.4 -81.7 20.6L312 507.4 299.4 300z"/><path class="st2" d="M398.1 337.1l79-14.2L466.6 493l-68.5 17V337.1z"/><rect x="295.5" y="379.4" class="st3" width="123.1" height="69.3"/><rect x="415" y="379.4" class="st4" width="85" height="69.3"/><g transform="matrix(0.42778543,0,0,0.42778543,58.617711,9.6737064)"><path class="st2" d="M581.7 881.6v127.3h23.6v-21.5 -21.6h32.1l15-13.5v-27.9 -27.9l-15.3-14.9H581.7zM605.3 906.2h22.5v37h-22.5V906.2z"/><path class="st2" d="M662.8 881.6v127.3h58.4l13.6-13.1V894.6l-14.4-13H662.8zM687.4 906.2h24.7v78h-24.7V906.2z"/><path class="st2" d="M747 881.6c19.9 0 39.7 0 59.6 0 0 8.2 0 16.4 0 24.6 -12.3 0-24.6 0-37 0 0 8.9 0 17.9 0 26.8 10.6 0.4 21.2-0.4 31.8 0v12.2 12.2c-10.6 0.4-21.2-0.4-31.8 0v25.9 25.6c-7.5 0-15.1 0-22.6 0C747 966.5 747 924 747 881.6z"/><path class="st2" d="M862.7 1002.3l-7.9-6.7c0-7.2 0-14.4 0-21.6 7.9 0 15.7 0 23.6 0 0 3.4 0 6.8 0 10.3 6.8 0 13.7 0 20.5 0 0-34.2 0-68.5 0-102.7 7.9 0 15.7 0 23.6 0 0 38 0 76 0 114 -5.3 4.4-10.5 8.9-15.8 13.3 -12.1 0-24.1 0-36.2 0C868 1006.7 865.3 1004.5 862.7 1002.3z"/><path class="st2" d="M940.8 1002.3l-7.6-6.7V974c7.5 0 15.9 0.1 23.4 0.1 0 3.4 0 6.8 0 10.3 8.2 0 16.4 0 24.6 0 0-8.9 0-17.8 0-26.7 -11.6 0-23.1 0-34.7 0l-13.6-13.3v-24.6V895l13.6-13.3c14 0 28 0 41.9 0l15.4 13.3c0 6.5 0 13 0 19.5 -7.5 0-15.1 0-22.6 0 0-2.7 0-5.5 0-8.2 -8.2 0-16.4 0-24.6 0 0 8.9 0 17.8 0 26.7 10.8 0 21.6 0 32.5 0 4.9 4.4 14.8 13.1 14.8 13.1 0 16.5 0 33 0 49.5l-7.6 6.7 -7.6 6.7h-20 -20L940.8 1002.3z"/></g></svg>